<svg xmlns="http://www.w3.org/2000/svg" width="1200" height="1200" viewBox="0 0 40 40"><defs><mask id="m"><rect width="40" height="40" fill="#fff"/><g fill="#000" stroke="#000" stroke-width=".35" stroke-linejoin="round"><path d="M21.98 12.87 L22.26 7.20 L27.46 9.35 L23.64 13.56Z"/><path d="M20.00 9.40 L19.18 7.03 L20.82 7.03Z"/><path d="M26.44 16.36 L30.65 12.54 L32.80 17.74 L27.13 18.02Z"/><path d="M27.50 12.50 L28.60 10.25 L29.75 11.40Z"/><path d="M27.13 21.98 L32.80 22.26 L30.65 27.46 L26.44 23.64Z"/><path d="M30.60 20.00 L32.97 19.18 L32.97 20.82Z"/><path d="M23.64 26.44 L27.46 30.65 L22.26 32.80 L21.98 27.13Z"/><path d="M27.50 27.50 L29.75 28.60 L28.60 29.75Z"/><path d="M18.02 27.13 L17.74 32.80 L12.54 30.65 L16.36 26.44Z"/><path d="M20.00 30.60 L20.82 32.97 L19.18 32.97Z"/><path d="M13.56 23.64 L9.35 27.46 L7.20 22.26 L12.87 21.98Z"/><path d="M12.50 27.50 L11.40 29.75 L10.25 28.60Z"/><path d="M12.87 18.02 L7.20 17.74 L9.35 12.54 L13.56 16.36Z"/><path d="M9.40 20.00 L7.03 20.82 L7.03 19.18Z"/><path d="M16.36 13.56 L12.54 9.35 L17.74 7.20 L18.02 12.87Z"/><path d="M12.50 12.50 L10.25 11.40 L11.40 10.25Z"/></g><g fill="#000"><circle transform="rotate(22.5 20 20)" cx="20" cy="14.6" r="0.9"/><circle transform="rotate(112.5 20 20)" cx="20" cy="14.6" r="0.9"/><circle transform="rotate(202.5 20 20)" cx="20" cy="14.6" r="0.9"/><circle transform="rotate(292.5 20 20)" cx="20" cy="14.6" r="0.9"/></g><circle cx="20" cy="20" r="3.6" fill="#000"/></mask></defs><circle cx="20" cy="20" r="18" fill="none" stroke="#F2A93B" stroke-width="2.6"/><circle cx="20" cy="20" r="14.4" fill="#F2A93B" mask="url(#m)"/><circle cx="20" cy="20" r="2.8" fill="#F2A93B"/></svg>